<!DOCTYPE svg PUBLIC "-//W3C//DTD SVG 1.1//EN" "http://www.w3.org/Graphics/SVG/1.1/DTD/svg11.dtd">
<!-- Uploaded to: SVG Repo, www.svgrepo.com, Transformed by: SVG Repo Mixer Tools -->
<svg fill="#00ff33" height="800px" width="800px" version="1.1" id="Capa_1" xmlns="http://www.w3.org/2000/svg" xmlns:xlink="http://www.w3.org/1999/xlink" viewBox="0 0 458.342 458.342" xml:space="preserve" stroke="#00ff33">
<g id="SVGRepo_bgCarrier" stroke-width="0"/>
<g id="SVGRepo_tracerCarrier" stroke-linecap="round" stroke-linejoin="round"/>
<g id="SVGRepo_iconCarrier"> <g> <path d="M106.432,129.71c0-19.335-15.73-35.066-35.065-35.066s-35.065,15.73-35.065,35.066c0,19.335,15.73,35.065,35.065,35.065 S106.432,149.045,106.432,129.71z M51.301,129.71c0-11.064,9.001-20.066,20.065-20.066s20.065,9.001,20.065,20.066 c0,11.064-9.001,20.065-20.065,20.065S51.301,140.774,51.301,129.71z"/> <path d="M265.683,389.63c-1.246-2.946-4.27-4.853-7.48-4.607c-3.138,0.241-5.819,2.45-6.668,5.476 c-1.906,6.788,6.153,12.162,11.748,7.976C265.961,396.472,266.99,392.717,265.683,389.63 C265.493,389.18,265.873,390.08,265.683,389.63z"/> <path d="M233.258,385H127.735c-17.114,0-31.038-13.924-31.038-31.038s13.924-31.038,31.038-31.038h149.582 c25.385,0,46.037-20.653,46.037-46.038s-20.652-46.038-46.037-46.038H86.089l43.01-59.181 c9.982-13.736,14.746-30.623,13.415-47.551c-1.331-16.928-8.676-32.863-20.683-44.87v0C108.352,65.766,90.43,58.342,71.367,58.342 s-36.985,7.424-50.465,20.903C8.895,91.252,1.55,107.187,0.219,124.115c-1.331,16.928,3.433,33.815,13.415,47.551l51.665,71.09 c1.411,1.942,3.667,3.091,6.067,3.091h205.95c17.114,0,31.037,13.924,31.037,31.038s-13.923,31.038-31.037,31.038H127.735 c-25.386,0-46.038,20.653-46.038,46.038S102.349,400,127.735,400h105.523c4.143,0,7.5-3.358,7.5-7.5S237.401,385,233.258,385z M25.769,162.848c-16.402-22.569-13.988-53.268,5.74-72.996C42.155,79.206,56.31,73.342,71.367,73.342s29.212,5.863,39.857,16.51 c19.729,19.728,22.143,50.427,5.74,72.996L71.367,225.59L25.769,162.848z"/> <path d="M450.842,196.929h-83.99c-4.143,0-7.5,3.358-7.5,7.5V385h-76.496c-4.143,0-7.5,3.358-7.5,7.5s3.357,7.5,7.5,7.5h83.996 c4.143,0,7.5-3.358,7.5-7.5V287.072h76.49c4.143,0,7.5-3.358,7.5-7.5v-75.143C458.342,200.287,454.985,196.929,450.842,196.929z M443.342,272.072h-68.99v-60.143h68.99V272.072z"/> </g> </g>
</svg>