<!DOCTYPE svg PUBLIC "-//W3C//DTD SVG 1.1//EN" "http://www.w3.org/Graphics/SVG/1.1/DTD/svg11.dtd">
<!-- Uploaded to: SVG Repo, www.svgrepo.com, Transformed by: SVG Repo Mixer Tools -->
<svg fill="#c8ff00" height="800px" width="800px" version="1.1" id="Capa_1" xmlns="http://www.w3.org/2000/svg" xmlns:xlink="http://www.w3.org/1999/xlink" viewBox="0 0 296.306 296.306" xml:space="preserve" stroke="#c8ff00">
<g id="SVGRepo_bgCarrier" stroke-width="0"/>
<g id="SVGRepo_tracerCarrier" stroke-linecap="round" stroke-linejoin="round"/>
<g id="SVGRepo_iconCarrier"> <g> <path d="M296.306,205.077H263.3v0c0,0-24.827-38.912-33.126-63.964l-0.001-0.003c-2.363-7.601-10.194-12.341-18.211-10.614 c-8.353,1.8-13.555,10.208-11.967,18.604l8.007,42.331H105.931c-7.431,0-13.785,5.78-14.017,13.208 c-0.152,4.842,2.224,9.135,5.903,11.673h-7.431c-7.347,0-13.67,5.646-14.015,12.986c-0.369,7.836,5.875,14.305,13.63,14.305h3.149 c-3.678,2.538-6.053,6.831-5.901,11.673c0.233,7.427,6.587,13.207,14.017,13.207h16.444c-2.692,2.673-4.277,6.458-4.002,10.61 c0.479,7.225,6.736,12.717,13.977,12.717h121.97c7.536,0,13.646-6.109,13.646-13.645l0,0v0h33.007V205.077z"/> <path d="M84.344,165.81c8.353-1.8,13.555-10.208,11.967-18.604l-8.007-42.331h102.071c7.431,0,13.785-5.781,14.017-13.208 c0.152-4.842-2.224-9.135-5.903-11.673h7.431c7.347,0,13.67-5.646,14.015-12.986c0.369-7.836-5.875-14.305-13.63-14.305h-3.15 c3.678-2.538,6.053-6.831,5.901-11.673c-0.233-7.427-6.587-13.207-14.017-13.207h-16.444c2.692-2.673,4.277-6.458,4.002-10.61 c-0.479-7.225-6.736-12.717-13.977-12.717H46.652c-7.536,0-13.646,6.109-13.646,13.646v0v0H0v73.087l34.806,0 c0,0,20,28.827,31.325,63.961l0.002,0.006C68.497,162.797,76.328,167.537,84.344,165.81z"/> </g> </g>
</svg>